<svg width="32" height="52" viewBox="0 0 32 52" fill="none" xmlns="http://www.w3.org/2000/svg">
<ellipse cx="15.751" cy="46.0009" rx="13.5" ry="5.5" fill="#8271EE" fill-opacity="0.4"/>
<path fill-rule="evenodd" clip-rule="evenodd" d="M4.61364 4.6133C7.56748 1.65946 11.5738 0 15.7511 0C19.9285 0 23.9348 1.65946 26.8886 4.6133C29.8425 7.56715 31.5019 11.5734 31.5019 15.7508C31.5019 19.9282 29.8425 23.9345 26.8886 26.8883L15.7511 38.0258L4.61364 26.8883C3.15094 25.4258 1.99066 23.6894 1.19905 21.7784C0.407439 19.8675 0 17.8193 0 15.7508C0 13.6823 0.407439 11.6342 1.19905 9.72317C1.99066 7.81219 3.15094 6.07585 4.61364 4.6133V4.6133ZM15.7511 20.2508C16.9446 20.2508 18.0892 19.7767 18.9331 18.9328C19.777 18.0889 20.2511 16.9443 20.2511 15.7508C20.2511 14.5573 19.777 13.4127 18.9331 12.5688C18.0892 11.7249 16.9446 11.2508 15.7511 11.2508C14.5577 11.2508 13.4131 11.7249 12.5692 12.5688C11.7252 13.4127 11.2511 14.5573 11.2511 15.7508C11.2511 16.9443 11.7252 18.0889 12.5692 18.9328C13.4131 19.7767 14.5577 20.2508 15.7511 20.2508Z" fill="#8271EE"/>
</svg>
