<svg width="27" height="26" viewBox="0 0 27 26" fill="none" xmlns="http://www.w3.org/2000/svg">
<path fill-rule="evenodd" clip-rule="evenodd" d="M4.55687 3.80781C6.99482 1.36971 10.3014 0 13.7492 0C17.1969 0 20.5035 1.36971 22.9415 3.80781C25.3794 6.2459 26.749 9.55267 26.749 13.0007C26.749 16.4487 25.3794 19.7554 22.9415 22.1935C22.9415 22.1935 18.8259 26 13.7492 26C8.6724 26 4.55687 22.1935 4.55687 22.1935C3.34964 20.9863 2.39201 19.5532 1.73866 17.9759C1.0853 16.3985 0.749023 14.708 0.749023 13.0007C0.749023 11.2934 1.0853 9.60279 1.73866 8.02547C2.39201 6.44815 3.34964 5.01498 4.55687 3.80781ZM13.7492 16.7149C14.7342 16.7149 15.6789 16.3236 16.3754 15.6271C17.0719 14.9305 17.4632 13.9858 17.4632 13.0007C17.4632 12.0156 17.0719 11.0708 16.3754 10.3743C15.6789 9.6777 14.7342 9.28638 13.7492 9.28638C12.7641 9.28638 11.8194 9.6777 11.1229 10.3743C10.4264 11.0708 10.0351 12.0156 10.0351 13.0007C10.0351 13.9858 10.4264 14.9305 11.1229 15.6271C11.8194 16.3236 12.7641 16.7149 13.7492 16.7149Z" fill="#8271EE"/>
</svg>
